<svg xmlns="http://www.w3.org/2000/svg" viewBox="0 0 100 100">
  <!-- Background circle -->
  <circle cx="50" cy="50" r="50" fill="#10b981"/>
  
  <!-- Leaf icon (similar to lucide-react Leaf) -->
  <g transform="translate(50, 50) scale(1.8)">
    <path d="M11 20A7 7 0 0 1 9.8 6.1C15.5 5 17 4.48 19 2c1 2 2 3.5 2 5.5c0 1.5-.5 3-1.5 4.5L22 15c.5.5.5 1 .5 1.5s-.5 1.5-1 2L19 21c-.5.5-1 1-1.5 1s-1-.5-1.5-1l-2.5-2.5C12 19.5 11.5 20 11 20Z" 
          fill="none" 
          stroke="#ffffff" 
          stroke-width="2" 
          stroke-linecap="round" 
          stroke-linejoin="round"/>
    <path d="M9.8 6.1C9 6 8 6 7 6c-2 0-4 1-5 3c0 2 1 4 3 5c1 .5 2 .5 3 .5" 
          fill="none" 
          stroke="#ffffff" 
          stroke-width="2" 
          stroke-linecap="round" 
          stroke-linejoin="round"/>
  </g>
</svg>
