<?xml version="1.0" encoding="UTF-8"?>
<svg id="Layer_1" xmlns="http://www.w3.org/2000/svg" version="1.1" viewBox="0 0 146.88 146.88">
  <!-- Generator: Adobe Illustrator 30.1.0, SVG Export Plug-In . SVG Version: 2.1.1 Build 136)  -->
  <defs>
    <style>
      .st0 {
        fill: #049a03;
      }
    </style>
  </defs>
  <path class="st0" d="M118.86,71.77c0,24.12-19.55,43.68-43.68,43.68s-43.68-19.55-43.68-43.68,19.55-43.68,43.68-43.68,43.68,19.55,43.68,43.68ZM113.86,71.77c0-21.36-17.31-38.67-38.67-38.67s-38.67,17.31-38.67,38.67,17.31,38.67,38.67,38.67,38.67-17.31,38.67-38.67Z"/>
  <path class="st0" d="M76.18,99.02c-.43.47-1.54.35-2.01.15l.44-10.77c-4.54,6.05-12.1,9.51-19.39,9.84,3.11-3.95,6.85-6.9,11.16-9.14-8.74-.54-16.58-6.02-22.12-12.54,5.42-1.48,10.76-1.23,15.97-.23l-2.23-3.47c-3.66-6.51-6.3-13.53-7.44-21.18,7.97,4.02,14.34,9.73,19.06,17.21-.24-9.45,1.57-18.83,5.59-27.77,3.95,8.81,5.78,18,5.6,27.7,4.71-7.3,11.1-13.23,19.08-17.11-1.5,8.99-4.65,17.23-9.77,24.66,5.3-1.08,10.6-1.28,15.99.19-5.48,6.45-13.51,12.06-22.08,12.54,4.25,2.24,8.03,5.17,11.11,9.12-7.51-.34-15.08-3.96-19.44-9.96l.48,10.74Z"/>
</svg>